<?xml version="1.0" standalone="no"?>
<!DOCTYPE svg PUBLIC "-//W3C//DTD SVG 20010904//EN"
 "http://www.w3.org/TR/2001/REC-SVG-20010904/DTD/svg10.dtd">
<svg version="1.0" xmlns="http://www.w3.org/2000/svg"
 width="200.000000pt" height="200.000000pt" viewBox="0 0 200.000000 200.000000"
 preserveAspectRatio="xMidYMid meet">

<g transform="translate(0.000000,200.000000) scale(0.100000,-0.100000)"
fill="#000000" stroke="none">
<path d="M885 1800 c-93 -15 -157 -37 -257 -87 -78 -40 -109 -64 -194 -148
-89 -89 -106 -111 -152 -205 -67 -136 -85 -214 -85 -360 0 -145 18 -223 85
-360 45 -94 61 -115 152 -205 84 -84 117 -109 193 -148 131 -68 220 -89 368
-90 150 -1 226 17 365 85 94 45 115 61 205 152 84 84 109 117 148 193 67 131
89 220 90 368 1 150 -16 224 -85 365 -45 94 -61 115 -152 206 -90 89 -113 106
-206 152 -58 28 -134 58 -170 67 -85 19 -229 26 -305 15z m259 -54 c87 -17
173 -50 254 -97 73 -44 207 -178 251 -251 147 -252 147 -544 0 -796 -44 -73
-178 -207 -251 -251 -252 -147 -544 -147 -796 0 -73 44 -207 178 -251 251
-147 252 -147 544 0 796 44 73 178 207 251 251 168 98 356 132 542 97z"/>
<path d="M850 1714 c-156 -33 -281 -104 -392 -222 -76 -81 -130 -172 -166
-280 -22 -67 -26 -95 -26 -212 -1 -115 3 -146 22 -210 64 -205 195 -361 377
-450 90 -44 185 -74 185 -59 0 6 7 6 19 -1 13 -7 22 -7 26 0 3 5 -3 10 -14 10
-31 0 -24 54 8 58 19 3 22 0 17 -13 -3 -9 -6 -19 -6 -21 0 -2 -8 -4 -17 -5
-14 0 -13 -2 4 -9 16 -6 21 -14 16 -26 -6 -15 4 -16 113 -11 82 3 141 12 189
27 414 130 628 568 474 970 -126 329 -489 528 -829 454z m-78 -296 c-5 -91
-13 -108 -49 -108 -26 0 -39 21 -28 48 6 14 9 13 17 -10 18 -51 28 -29 28 62
0 81 2 90 18 90 17 0 18 -7 14 -82z m398 62 c0 -23 -25 -27 -33 -6 -7 16 1 26
20 26 7 0 13 -9 13 -20z m73 14 c9 -10 -4 -34 -19 -34 -8 0 -14 9 -14 20 0 19
19 27 33 14z m-366 -66 c6 -7 13 -36 16 -65 l6 -52 -47 2 c-41 2 -47 5 -50 25
-3 16 5 27 27 40 32 18 41 42 16 42 -7 0 -19 -8 -24 -17 -9 -16 -10 -16 -11 4
0 31 48 46 67 21z m140 0 c7 -6 20 -4 33 4 18 11 23 10 36 -6 20 -27 19 -116
-1 -116 -11 0 -15 12 -15 48 0 53 -5 63 -26 55 -9 -3 -14 -21 -14 -54 0 -37
-4 -49 -15 -49 -11 0 -15 12 -15 49 0 28 -4 52 -9 55 -17 11 -33 -24 -29 -64
3 -31 0 -40 -12 -40 -12 0 -15 14 -16 64 l0 64 35 -1 c20 0 41 -4 48 -9z m153
-53 c0 -51 -3 -65 -15 -65 -11 0 -15 12 -15 49 0 27 -3 56 -6 65 -4 12 0 16
15 16 19 0 21 -6 21 -65z m70 0 c0 -51 -3 -65 -15 -65 -12 0 -15 14 -15 65 0
51 3 65 15 65 12 0 15 -14 15 -65z m-13 -261 c40 -21 56 -24 96 -19 l48 6 -3
-128 -3 -128 -38 -3 c-32 -3 -42 1 -65 29 -73 88 -137 149 -155 149 -11 0 -45
-14 -75 -31 -29 -16 -63 -29 -74 -27 -28 4 -46 33 -33 54 16 24 196 123 227
123 15 1 49 -11 75 -25z m-49 -180 c68 -76 90 -118 73 -138 -8 -9 -21 -16 -30
-16 -9 0 -21 -10 -26 -22 -6 -13 -20 -24 -32 -26 -12 -2 -25 -12 -28 -23 -4
-13 -15 -19 -35 -19 -19 0 -29 -6 -33 -20 -3 -12 -14 -20 -26 -20 -20 0 -21 4
-21 150 l0 150 38 19 c20 11 45 20 54 21 9 0 39 -25 66 -56z m506 -85 c-3 -5
-13 -9 -22 -9 -15 -1 -15 -2 1 -11 24 -14 12 -29 -21 -28 l-27 1 25 7 c21 6
22 8 8 14 -23 8 -23 27 -1 27 15 0 14 2 -3 15 -17 13 -16 14 13 4 18 -6 30
-15 27 -20z m-1285 -29 c1 -13 -1 -13 -8 -1 -6 10 -19 12 -42 7 -24 -4 -30 -3
-19 4 8 5 23 10 33 10 9 0 17 8 18 18 0 14 2 14 9 -3 5 -11 9 -27 9 -35z m426
7 c-1 -21 3 -26 16 -22 20 7 43 -19 36 -39 -4 -10 2 -16 21 -18 21 -2 27 -8
26 -25 0 -17 5 -23 22 -23 29 0 38 -27 19 -57 -21 -32 -68 -29 -73 4 -2 14
-11 23 -25 25 -16 2 -22 10 -22 29 0 19 -4 25 -15 22 -21 -6 -44 22 -36 43 5
12 2 15 -10 10 -19 -7 -44 10 -44 30 0 23 40 55 63 52 17 -2 22 -10 22 -31z
m-440 -37 c3 -6 -1 -7 -10 -4 -8 4 -23 0 -33 -7 -15 -13 -16 -12 -3 4 15 19
36 22 46 7z m1283 -23 c2 -9 -4 -20 -13 -23 -20 -8 -50 19 -40 36 10 17 49 8
53 -13z m-1278 -7 c0 -5 -12 -10 -27 -9 l-28 1 25 8 c14 4 26 8 28 9 1 1 2 -3
2 -9z m3 -30 c-13 -6 -23 -18 -23 -30 0 -13 -6 -20 -17 -19 -11 0 -13 3 -5 6
14 5 17 33 3 33 -5 0 -12 -6 -14 -12 -3 -8 -6 -7 -6 4 -1 11 9 18 27 21 47 7
58 6 35 -3z m1242 -18 c18 -11 17 -12 -7 -6 -32 7 -38 -11 -10 -32 12 -9 13
-13 3 -14 -8 0 -11 -6 -6 -17 5 -15 4 -16 -6 -5 -18 17 -39 15 -39 -3 0 -8 10
-16 23 -16 l22 -2 -23 -4 c-20 -4 -21 -7 -10 -20 12 -15 11 -15 -12 -3 -14 8
-29 13 -33 12 -5 -1 -6 2 -2 7 3 6 12 8 19 5 10 -4 12 2 9 20 -5 23 -2 26 23
26 24 1 26 2 12 10 -14 8 -14 15 -5 40 6 16 14 26 17 21 3 -4 14 -13 25 -19z
m-1215 -3 c0 -5 -9 -9 -20 -9 -11 0 -20 4 -20 8 0 4 9 8 20 9 11 1 20 -2 20
-8z m15 -38 c0 -8 -6 -16 -12 -18 -7 -3 -13 0 -13 7 0 6 5 8 10 5 6 -3 10 -1
10 4 0 13 -10 14 -29 2 -8 -5 -10 -14 -6 -22 6 -11 5 -11 -5 -2 -19 18 -4 45
22 41 13 -2 23 -9 23 -17z m25 -37 c0 -11 5 -14 16 -10 14 5 15 4 5 -8 -9 -10
-9 -16 -1 -21 6 -4 9 -13 6 -20 -2 -7 4 -15 15 -18 10 -3 19 -12 19 -21 0 -19
-16 -21 -26 -4 -4 7 -3 8 4 4 7 -4 12 -2 12 4 0 7 -6 10 -12 7 -7 -2 -13 -13
-12 -25 0 -12 -4 -18 -9 -15 -5 3 -7 16 -4 30 3 19 1 23 -11 18 -13 -5 -13 -2
2 14 12 13 14 21 6 26 -7 4 -17 2 -23 -4 -6 -6 -16 -11 -21 -11 -6 0 0 9 13
19 18 14 21 20 11 26 -8 5 -18 1 -27 -10 -8 -12 -13 -14 -13 -6 0 14 28 40 43
41 4 0 7 -7 7 -16z m1090 -59 c8 -9 9 -15 2 -15 -6 0 -14 5 -18 11 -4 8 -10 7
-18 -1 -8 -8 -7 -14 7 -21 9 -6 17 -15 17 -22 0 -6 -9 -2 -20 9 -13 12 -18 27
-14 37 8 21 28 22 44 2z m-44 -47 l19 -23 -22 18 c-28 24 -42 4 -16 -26 l18
-22 -22 18 c-28 25 -51 13 -27 -14 9 -10 15 -19 12 -19 -3 0 -13 9 -22 19 -16
18 -16 20 11 45 15 14 28 26 29 26 0 0 9 -10 20 -22z m-966 -11 c0 -2 -10 -12
-22 -23 l-23 -19 19 23 c18 21 26 27 26 19z m80 -42 c10 -12 10 -19 2 -27 -18
-18 -14 -32 5 -17 15 13 15 12 5 -8 -15 -28 -15 -33 2 -33 8 0 17 7 20 16 4 9
9 14 12 11 3 -3 0 -14 -7 -25 -10 -16 -17 -18 -31 -11 -10 5 -18 16 -18 24 0
8 -6 12 -13 9 -7 -2 -21 1 -30 9 -17 12 -17 14 3 40 25 31 33 33 50 12z m743
-6 c-9 -9 -8 -20 3 -43 14 -28 14 -29 -1 -12 -8 11 -15 24 -15 29 0 5 -7 7
-15 3 -24 -9 -17 10 8 22 29 14 33 14 20 1z m75 -13 c5 -23 -18 -39 -35 -24
-7 6 -13 19 -13 30 0 26 43 21 48 -6z m-723 -63 c-5 -22 -4 -25 8 -15 8 7 22
10 31 6 10 -4 16 -1 16 7 0 7 2 10 5 7 3 -2 0 -19 -6 -36 -13 -38 -45 -43 -59
-9 -5 12 -9 16 -9 8 -1 -8 -3 -12 -6 -9 -6 6 14 68 22 68 3 0 2 -12 -2 -27z
m581 -4 c1 -32 1 -32 -12 -8 -9 18 -9 26 -1 31 7 4 12 8 12 8 0 0 1 -14 1 -31z
m-606 13 c0 -5 -7 -17 -15 -28 -14 -18 -14 -17 -4 9 12 27 19 34 19 19z m575
-13 c4 -6 -1 -17 -11 -25 -18 -15 -18 -15 4 -11 12 3 20 1 16 -4 -7 -12 -31
-11 -39 2 -4 6 1 17 11 25 18 15 18 15 1 10 -11 -3 -16 -2 -12 4 8 13 22 13
30 -1z m-59 -20 c1 -5 2 -16 3 -25 0 -8 6 -12 11 -9 6 3 10 4 10 1 0 -19 -22
-12 -34 11 -12 24 -15 26 -21 10 -4 -9 -2 -24 5 -32 7 -9 8 -15 2 -15 -5 0
-15 14 -21 31 -14 40 -14 39 3 33 8 -3 17 0 21 6 7 12 19 6 21 -11z m-426 -46
c-11 -17 -11 -17 -6 0 3 10 7 26 7 35 1 15 2 15 6 0 2 -10 -1 -25 -7 -35z
m305 7 c0 -28 -4 -36 -21 -38 -18 -3 -22 3 -26 33 -5 41 -1 47 27 43 16 -2 20
-10 20 -38z m-236 -2 c-2 -31 -2 -31 -6 -5 -5 33 -20 35 -33 5 -8 -22 -9 -22
-9 -2 -1 25 7 34 31 34 14 0 18 -7 17 -32z m140 0 c6 -17 9 -34 6 -36 -3 -3
-5 0 -5 6 0 7 -9 12 -20 12 -11 0 -20 -5 -20 -12 0 -6 -2 -9 -5 -7 -6 7 17 69
26 69 4 0 12 -14 18 -32z m159 15 c2 -8 -5 -13 -18 -13 -12 0 -18 -4 -15 -11
4 -6 14 -8 22 -5 8 3 11 1 8 -4 -3 -6 -12 -10 -20 -10 -16 0 -29 35 -20 50 9
14 37 9 43 -7z"/>
<path d="M837 1363 c-12 -11 -8 -45 5 -41 17 6 30 48 14 48 -7 0 -16 -3 -19
-7z"/>
<path d="M1622 768 c7 -19 38 -22 38 -4 0 10 -9 16 -21 16 -12 0 -19 -5 -17
-12z"/>
<path d="M592 469 c2 -7 10 -15 17 -17 8 -3 12 1 9 9 -2 7 -10 15 -17 17 -8 3
-12 -1 -9 -9z"/>
<path d="M566 441 c-3 -5 1 -11 9 -15 15 -6 29 7 18 18 -9 9 -21 8 -27 -3z"/>
<path d="M1402 454 c4 -21 22 -23 26 -1 2 10 -3 17 -13 17 -10 0 -15 -6 -13
-16z"/>
<path d="M726 364 c-8 -21 -1 -28 19 -20 9 3 15 11 13 18 -7 19 -25 20 -32 2z"/>
<path d="M1050 350 c0 -5 7 -10 16 -10 8 0 12 5 9 10 -3 6 -10 10 -16 10 -5 0
-9 -4 -9 -10z"/>
<path d="M1050 315 c0 -8 7 -15 15 -15 8 0 15 7 15 15 0 8 -7 15 -15 15 -8 0
-15 -7 -15 -15z"/>
<path d="M965 330 c-3 -5 -1 -10 4 -10 6 0 11 5 11 10 0 6 -2 10 -4 10 -3 0
-8 -4 -11 -10z"/>
<path d="M1118 343 c7 -3 16 -2 19 1 4 3 -2 6 -13 5 -11 0 -14 -3 -6 -6z"/>
<path d="M870 330 c0 -5 4 -10 9 -10 6 0 13 5 16 10 3 6 -1 10 -9 10 -9 0 -16
-4 -16 -10z"/>
</g>
</svg>
