<?xml version="1.0" encoding="utf-8"?>
<!-- Generator: Adobe Illustrator 21.0.0, SVG Export Plug-In . SVG Version: 6.00 Build 0)  -->
<svg version="1.1" id="Layer_1" xmlns="http://www.w3.org/2000/svg" xmlns:xlink="http://www.w3.org/1999/xlink" x="0px" y="0px"
	 viewBox="0 0 150.7 64.2" style="enable-background:new 0 0 150.7 64.2;" xml:space="preserve">
<style type="text/css">
	.st0{fill:#FF1000;}
	.st1{fill:#FF4A1A;}
	.st2{fill:#FF6F19;}
	.st3{fill:#FF8C1F;}
	.st4{fill:#FFC54B;}
</style>
<g>
	<path class="st0" d="M4.4,22.2c3.7-2.5,7.8-4.5,11.8-6.6c4-2.1,8-4.1,12.2-5.9c1.4-0.6,1.8-2.7,1-4c-0.8-1.4-2.6-1.8-4-1
		c-4,2-8,4.1-11.8,6.4C9.6,13.4,6,16,2.3,18.5C0,20,2.1,23.7,4.4,22.2"/>
	<path class="st1" d="M8.4,27.2c5.9-2.5,11.7-5.4,17.6-8.2c5.8-2.8,11.6-5.6,17.4-8.5c1.6-0.8,2.1-3.1,1.2-4.6c-1-1.7-3-2-4.6-1.2
		C28.4,10.3,17,16.6,6.5,24C4.5,25.4,6.2,28.2,8.4,27.2"/>
	<path class="st1" d="M42.9,13c-8.2,3.8-16.5,7.4-24.9,11c-1.4,0.6-1.8,2.8-1,4c0.9,1.5,2.6,1.7,4,1c8.2-3.8,16.1-8.1,23.6-13.1
		C46.4,14.7,44.8,12.1,42.9,13"/>
	<path class="st2" d="M25.4,32.9c4.1-1.2,8-2.8,11.9-4.4c3.9-1.6,7.9-3.2,11.8-4.8c3.6-1.5,0.9-7.1-2.7-5.5
		c-3.8,1.7-7.5,3.4-11.3,5.1c-3.8,1.7-7.6,3.3-11.1,5.4C22,30,22.9,33.6,25.4,32.9"/>
	<path class="st2" d="M58.8,23.9c-5.5,0.9-10.9,2.9-16.2,4.7c-5.4,1.8-10.7,3.6-15.9,5.7c-1.7,0.7-2.9,2.3-2.4,4.2
		c0.5,1.7,2.5,3,4.2,2.4c5.5-2,10.9-4.2,16.2-6.6c5.1-2.3,10.5-4.6,15.2-7.8C61.1,25.4,60.3,23.6,58.8,23.9"/>
	<path class="st3" d="M48.9,35c-3.7,1-7.3,2.4-10.9,3.9l-5.1,2.2c-1.9,0.8-3.9,1.5-5.4,2.9c-0.8,0.8-1,2.2-0.4,3.1
		c0.6,1.1,1.8,1.4,2.9,1.2c1.9-0.3,3.7-1.4,5.4-2.3c1.6-0.9,3.2-1.7,4.9-2.6c3.3-1.8,6.6-3.6,9.7-5.8C51.2,36.7,50.5,34.6,48.9,35"
		/>
	<path class="st4" d="M33,63.5c3.7-1.4,7.1-3.3,10.5-5.3c2.6-1.6,0.2-5.7-2.4-4.1c-3.2,2-6.5,3.7-9.7,5.7C29.5,61,30.7,64.4,33,63.5
		"/>
	<path class="st3" d="M50.8,42.8c-1.7-0.5-3.5,0.5-5.1,1.1c-1.7,0.6-3.3,1.3-5,2c-1.7,0.7-3.3,1.3-5,1.9c-1.8,0.7-3.8,1.2-5.5,2.3
		c-3.1,2-1,6.3,2.4,5.7c1.9-0.4,3.8-1.4,5.5-2.2c1.7-0.8,3.4-1.7,5-2.6c1.6-0.8,3.1-1.7,4.6-2.7c1.5-0.9,3.4-2,4-3.7
		C52,43.8,51.5,43,50.8,42.8"/>
	<path class="st0" d="M23.6,0.7c-1.5-0.5-3.1,0.2-4.5,0.7c-1.6,0.6-3.2,1.2-4.8,1.9C11.2,4.7,8,6.1,5,7.7c-2.9,1.6-0.3,5.8,2.6,4.4
		c3-1.5,5.9-3.1,8.9-4.7c1.4-0.7,2.8-1.5,4.2-2.4c1.3-0.7,2.9-1.5,3.5-2.9C24.5,1.6,24.3,0.9,23.6,0.7"/>
	<path class="st1" d="M131,53.4h1.7v7.3h1.2v-7.3h1.8v-1.1H131V53.4z M127.5,57.8l0.8-3.7l0.9,3.7H127.5z M127.7,52.2l-2.1,8.4h1.3
		l0.4-1.7h2.2l0.4,1.7h1.3l-2.1-8.4H127.7z M124.7,52.2h-1.2v8.4h1.2V52.2z M132,28h-9.1v18.1h9.4v-3h-6.2v-4.7h5.4v-2.9h-5.4V31
		h5.9V28z M122.5,52.2h-4.7v1.1h1.7v7.3h1.2v-7.3h1.8V52.2z M116.7,52.2h-1.2v8.4h1.2V52.2z M110.1,52.2h-1.2v8.4h1.2v-3.2
		c0-0.8-0.1-2.1-0.1-2.9l0,0c0.2,0.5,0.6,1.4,0.8,2l1.9,4.1h1.2v-8.4h-1.2v3.3c0,0.7,0.1,2,0.2,2.8l0,0c-0.2-0.5-0.5-1.3-0.8-1.8
		L110.1,52.2z M107.2,52.2H106v8.4h1.2V52.2z M90.3,52.2h-1.2v8.4h1.2V52.2z M85.2,53.4c0.8,0,1.3,0.5,1.3,1.5c0,1-0.4,1.5-1.3,1.5
		h-0.9v-3.1H85.2z M85.2,52.2h-2.2v8.4h1.2v-3H85l1.7,3h1.3l-1.8-3.2c1-0.3,1.5-1.2,1.5-2.6C87.8,53.2,86.9,52.2,85.2,52.2
		 M87.2,39.8l1.5-6.8l1.5,6.8H87.2z M87,28l-4.4,18.1h3.3l0.7-3.3h4.2l0.7,3.3h3.3L90.4,28H87z M81.9,52.2h-4v8.4h1.2V57h2.5v-1.1
		h-2.5v-2.5h2.7V52.2z M73.4,57.8l0.8-3.7l0.9,3.7H73.4z M73.6,52.2l-2.1,8.4h1.3l0.4-1.7h2.2l0.4,1.7H77l-2.1-8.4H73.6z M74.8,8.2
		c0-1,0.7-1.7,1.9-1.7c1.2,0,1.9,0.7,2,2.1h3.3c0-3.2-2-5.2-5.2-5.2c-3.2,0-5.1,2-5.1,4.7c0,5.5,7.3,5.7,7.3,9c0,1.2-0.7,2-2.1,2
		c-1.4,0-2.2-0.8-2.3-2.4h-3.3c0,3.5,2.1,5.5,5.5,5.5c3.5,0,5.5-2.3,5.5-5.1C82.2,11.4,74.8,11.3,74.8,8.2 M79,46.1L83.3,28H80
		l-2.8,13.4l-0.9-4.2L74.5,28h-3.3l4.4,18.1H79z M92.4,21.9h3.2V3.8h-3.2v7.5H88V3.8h-3.2v18.1H88v-7.6h4.4V21.9z M93,58.2v-3.5
		c0-1,0.5-1.5,1.2-1.5c0.8,0,1.2,0.4,1.3,1.4h1.2c-0.1-1.7-1-2.6-2.5-2.6c-1.5,0-2.4,0.9-2.4,2.6v3.5c0,1.7,1,2.6,2.4,2.6
		c1.5,0,2.4-0.9,2.5-2.6h-1.2c-0.1,1-0.5,1.4-1.3,1.4C93.5,59.6,93,59.2,93,58.2 M98.8,57.8l0.8-3.7l0.9,3.7H98.8z M99,52.2
		l-2.1,8.4h1.3l0.4-1.7h2.2l0.4,1.7h1.3l-2.1-8.4H99z M100.6,28h-3.2v18.1h8.8v-3h-5.7V28z M105.6,15.6h-2.9l1.5-6.8L105.6,15.6z
		 M106.9,21.9h3.3l-4.5-18.1h-3.4l-4.5,18.1h3.3l0.7-3.3h4.2L106.9,21.9z M113.9,43.3c-1.4,0-2.3-1-2.3-2.9V28h-3.3v12.4
		c0,3.8,2.1,6,5.6,6c3.5,0,5.6-2.2,5.6-6V28h-3.3v12.4C116.2,42.3,115.4,43.3,113.9,43.3 M119.9,9.6c0,1.9-0.8,2.9-2.4,2.9h-1.8V6.8
		h1.8C119,6.8,119.9,7.8,119.9,9.6 M123.9,21.9l-3.6-6.9c1.8-0.9,2.8-2.7,2.8-5.4c0-3.7-2-5.8-5.6-5.8h-5v18.1h3.2v-6.3h1.4l3.2,6.3
		H123.9z M126.4,21.9h9.4v-3h-6.2v-4.7h5.4v-2.9h-5.4V6.8h5.9v-3h-9.1V21.9z M136.7,60.6h1.2v-8.4h-1.2V60.6z M140.1,52.2h-1.3
		l2.1,8.4h1.3l2.1-8.4H143l-1.5,6.7L140.1,52.2z M146.2,15.9c0,1.9-0.9,2.9-2.4,2.9h-1.6V6.8h1.6c1.6,0,2.4,1,2.4,2.8V15.9z
		 M149.4,15.9V9.6c0-3.7-2.1-5.8-5.7-5.8H139v18.1h4.8C147.3,21.9,149.4,19.7,149.4,15.9 M149.4,60.6v-1.1h-3v-2.6h2.7v-1.1h-2.7
		v-2.4h2.9v-1.1h-4.1v8.4H149.4z"/>
</g>
<g>
</g>
<g>
</g>
<g>
</g>
<g>
</g>
<g>
</g>
<g>
</g>
</svg>
